:FULLY-SPECIFIED
:FORCE-ALL-JOINTS-BE-3DOF
:DEGREES
1631
root -14.988 14.5898 19.3872 698.549 -71.2585 381.762
lfemur 16.8003 -10.5354 -13.9226
ltibia 20.8438 0 0
lfoot -20.9719 29.2689 0
ltoes -45.2708 0 0
rfemur -52.5818 -15.3481 7.5541
rtibia 67.2813 0 0
rfoot -10.9434 10.4714 0
rtoes 6.85182 0 0
lowerback 12.7803 4.39921 -8.37082
upperback -0.297774 4.48131 -0.742581
thorax -8.09925 2.47846 3.01327
lowerneck 0.667938 -12.2031 -12.3189
upperneck 4.61293 -16.7221 8.96869
head 3.02277 -8.3752 3.96008
lclavicle 1.13678e-13 -1.64153e-14 0
lhumerus -71.979 -16.6896 104.294
lradius 103.859 0 0
lwrist 54.3626 0 0
lhand -11.6555 49.7793 0
lfingers 7.12502 0 0
lthumb 14.3877 79.2061 0
rclavicle 1.13678e-13 -1.64153e-14 0
rhumerus 47.4951 -3.86186 -56.5012
rradius 18.3054 0 0
rwrist 26.6596 0 0
rhand -19.4076 -35.0742 0
rfingers 7.12502 0 0
rthumb 6.91252 -64.9585 0
1632
root -15.0003 14.5881 19.3928 698.754 -71.2307 381.478
lfemur 16.7461 -10.5923 -13.856
ltibia 20.9984 0 0
lfoot -21.0131 29.3141 0
ltoes -45.1926 0 0
rfemur -52.4551 -15.3658 7.57851
rtibia 67.1809 0 0
rfoot -10.931 10.5014 0
rtoes 6.84362 0 0
lowerback 12.796 4.37915 -8.319
upperback -0.307282 4.46412 -0.715505
thorax -8.11463 2.46965 3.0161
lowerneck 0.668538 -12.2433 -12.3089
upperneck 4.60004 -16.7784 8.99704
head 3.02647 -8.40229 3.96259
lclavicle 1.11448e-13 -1.68194e-14 0
lhumerus -72.0404 -16.6171 104.264
lradius 103.915 0 0
lwrist 54.4209 0 0
lhand -12.0646 49.7182 0
lfingers 7.12502 0 0
lthumb 13.9922 79.1603 0
rclavicle 1.11448e-13 -1.68194e-14 0
rhumerus 47.4566 -3.92785 -56.6511
rradius 18.2217 0 0
rwrist 26.7533 0 0
rhand -19.376 -34.9965 0
rfingers 7.12502 0 0
rthumb 6.94301 -64.8799 0
1633
root -15.0127 14.5864 19.3983 699.032 -71.2145 381.128
lfemur 16.5809 -10.6743 -13.7808
ltibia 21.3392 0 0
lfoot -21.0538 29.359 0
ltoes -45.084 0 0
rfemur -52.3442 -15.3565 7.60394
rtibia 67.0638 0 0
rfoot -10.9021 10.5283 0
rtoes 6.75447 0 0
lowerback 12.8142 4.35563 -8.25177
upperback -0.316993 4.44506 -0.683125
thorax -8.13071 2.45949 3.01628
lowerneck 0.685666 -12.2974 -12.3074
upperneck 4.55673 -16.8545 9.05078
head 3.02428 -8.43979 3.97404
lclavicle 1.08736e-13 -1.72804e-14 0
lhumerus -72.0921 -16.5711 104.239
lradius 103.972 0 0
lwrist 54.4809 0 0
lhand -12.4976 49.6272 0
lfingers 7.12502 0 0
lthumb 13.5738 79.0872 0
rclavicle 1.08736e-13 -1.72804e-14 0
rhumerus 47.4074 -3.98201 -56.7601
rradius 18.1744 0 0
rwrist 26.7176 0 0
rhand -19.3081 -34.9376 0
rfingers 7.12502 0 0
rthumb 7.00846 -64.8183 0
1634
root -15.025 14.5848 19.4038 699.391 -71.2132 380.714
lfemur 16.2951 -10.7839 -13.6987
ltibia 21.8804 0 0
lfoot -21.0918 29.4047 0
ltoes -44.9409 0 0
rfemur -52.2561 -15.3171 7.63015
rtibia 66.9334 0 0
rfoot -10.8599 10.5519 0
rtoes 6.57545 0 0
lowerback 12.8338 4.32865 -8.16818
upperback -0.327266 4.42442 -0.644872
thorax -8.14719 2.44808 3.01385
lowerneck 0.722511 -12.3671 -12.316
upperneck 4.47826 -16.9526 9.13262
head 3.01495 -8.48891 3.99561
lclavicle 1.05592e-13 -1.78236e-14 0
lhumerus -72.132 -16.5584 104.221
lradius 104.026 0 0
lwrist 54.5401 0 0
lhand -12.9727 49.4981 0
lfingers 7.12502 0 0
lthumb 13.115 78.981 0
rclavicle 1.05592e-13 -1.78236e-14 0
rhumerus 47.348 -4.02009 -56.8192
rradius 18.1701 0 0
rwrist 26.5349 0 0
rhand -19.1989 -34.8993 0
rfingers 7.12502 0 0
rthumb 7.1139 -64.7753 0
1635
root -15.0374 14.5831 19.4093 699.835 -71.2302 380.232
lfemur 15.8794 -10.9237 -13.6112
ltibia 22.6364 0 0
lfoot -21.1249 29.4522 0
ltoes -44.7593 0 0
rfemur -52.198 -15.2447 7.65693
rtibia 66.7931 0 0
rfoot -10.8078 10.5718 0
rtoes 6.29764 0 0
lowerback 12.8536 4.29819 -8.06724
upperback -0.338459 4.4025 -0.600178
thorax -8.1638 2.43557 3.00886
lowerneck 0.782262 -12.4538 -12.336
upperneck 4.35987 -17.075 9.24526
head 2.99725 -8.55086 4.02847
lclavicle 1.02064e-13 -1.84743e-14 0
lhumerus -72.1578 -16.5856 104.213
lradius 104.075 0 0
lwrist 54.5959 0 0
lhand -13.508 49.3228 0
lfingers 7.12502 0 0
lthumb 12.5984 78.8363 0
rclavicle 1.02064e-13 -1.84743e-14 0
rhumerus 47.2788 -4.03781 -56.8196
rradius 18.2153 0 0
rwrist 26.1875 0 0
rhand -19.0429 -34.8833 0
rfingers 7.12502 0 0
rthumb 7.26439 -64.7522 0
1636
root -15.0497 14.5814 19.4148 700.373 -71.2689 379.684
lfemur 15.3246 -11.0965 -13.5199
ltibia 23.6215 0 0
lfoot -21.1511 29.5028 0
ltoes -44.5352 0 0
rfemur -52.1769 -15.1363 7.68406
rtibia 66.6463 0 0
rfoot -10.7489 10.5879 0
rtoes 5.9121 0 0
lowerback 12.8724 4.26425 -7.948
upperback -0.350927 4.37957 -0.548474
thorax -8.18023 2.42208 3.00137
lowerneck 0.868109 -12.5592 -12.3689
upperneck 4.19683 -17.2238 9.39139
head 2.96996 -8.62684 4.07378
lclavicle 9.82046e-14 -1.92581e-14 0
lhumerus -72.1672 -16.6596 104.217
lradius 104.118 0 0
lwrist 54.646 0 0
lhand -14.1219 49.0934 0
lfingers 7.12502 0 0
lthumb 12.0066 78.6474 0
rclavicle 9.82046e-14 -1.92581e-14 0
rhumerus 47.2003 -4.03094 -56.7522
rradius 18.3164 0 0
rwrist 25.6578 0 0
rhand -18.835 -34.8914 0
rfingers 7.12502 0 0
rthumb 7.46497 -64.7506 0
1637
root -15.0621 14.5797 19.4204 701.009 -71.3325 379.068
lfemur 14.6212 -11.3047 -13.4263
ltibia 24.8499 0 0
lfoot -21.1682 29.5576 0
ltoes -44.2647 0 0
rfemur -52.2 -14.989 7.71133
rtibia 66.4963 0 0
rfoot -10.6864 10.5998 0
rtoes 5.40991 0 0
lowerback 12.889 4.22682 -7.80949
upperback -0.365029 4.35594 -0.489193
thorax -8.19622 2.40772 2.99143
lowerneck 0.983241 -12.6848 -12.4162
upperneck 3.98436 -17.4012 9.57372
head 2.93183 -8.71809 4.13273
lclavicle 9.40622e-14 -2.02003e-14 0
lhumerus -72.158 -16.7869 104.237
lradius 104.152 0 0
lwrist 54.6878 0 0
lhand -14.8324 48.8016 0
lfingers 7.12502 0 0
lthumb 11.3222 78.4088 0
rclavicle 9.40622e-14 -2.02003e-14 0
rhumerus 47.1129 -3.9952 -56.6084
rradius 18.48 0 0
rwrist 24.9281 0 0
rhand -18.5699 -34.9252 0
rfingers 7.12502 0 0
rthumb 7.72067 -64.772 0
1638
root -15.0744 14.578 19.4259 701.752 -71.4245 378.384
lfemur 13.7598 -11.5512 -13.3321
ltibia 26.3359 0 0
lfoot -21.1742 29.6175 0
ltoes -43.9437 0 0
rfemur -52.2744 -14.7997 7.73853
rtibia 66.3466 0 0
rfoot -10.6237 10.6073 0
rtoes 4.78214 0 0
lowerback 12.9021 4.1859 -7.65072
upperback -0.381123 4.3319 -0.421765
thorax -8.21147 2.39264 2.97908
lowerneck 1.13085 -12.832 -12.4794
upperneck 3.71774 -17.6094 9.79496
head 2.88164 -8.82579 4.20648
lclavicle 8.96872e-14 -2.13263e-14 0
lhumerus -72.128 -16.9744 104.274
lradius 104.175 0 0
lwrist 54.7188 0 0
lhand -15.6578 48.4395 0
lfingers 7.12502 0 0
lthumb 10.5276 78.1148 0
rclavicle 8.96872e-14 -2.13263e-14 0
rhumerus 47.017 -3.92635 -56.379
rradius 18.7127 0 0
rwrist 23.9807 0 0
rhand -18.2425 -34.9865 0
rfingers 7.12502 0 0
rthumb 8.03654 -64.8177 0
1639
root -15.0868 14.5763 19.4314 702.606 -71.5483 377.63
lfemur 12.7312 -11.8384 -13.2388
ltibia 28.094 0 0
lfoot -21.1668 29.6838 0
ltoes -43.5683 0 0
rfemur -52.4073 -14.5654 7.76542
rtibia 66.2006 0 0
rfoot -10.5639 10.61 0
rtoes 4.01987 0 0
lowerback 12.9107 4.14147 -7.47073
upperback -0.399566 4.30773 -0.345624
thorax -8.22569 2.37695 2.96438
lowerneck 1.31412 -13.0026 -12.5599
upperneck 3.3922 -17.8507 10.0578
head 2.81815 -8.95117 4.29621
lclavicle 8.51295e-14 -2.26615e-14 0
lhumerus -72.075 -17.2288 104.333
lradius 104.184 0 0
lwrist 54.7366 0 0
lhand -16.6163 47.9989 0
lfingers 7.12502 0 0
lthumb 9.60554 77.7599 0
rclavicle 8.51295e-14 -2.26615e-14 0
rhumerus 46.9132 -3.82012 -56.0554
rradius 19.0208 0 0
rwrist 22.798 0 0
rhand -17.8474 -35.077 0
rfingers 7.12502 0 0
rthumb 8.41762 -64.8893 0
1640
root -15.0552 14.5662 19.4499 703.456 -71.6634 376.899
lfemur 11.6882 -12.1208 -13.1321
ltibia 29.8978 0 0
lfoot -21.1448 29.73 0
ltoes -43.1712 0 0
rfemur -52.5917 -14.3699 7.82552
rtibia 66.1588 0 0
rfoot -10.5412 10.6488 0
rtoes 3.25698 0 0
lowerback 12.9118 4.10813 -7.28025
upperback -0.422268 4.29988 -0.278433
thorax -8.24197 2.36885 2.93053
lowerneck 1.49276 -13.1719 -12.6411
upperneck 3.06565 -18.0893 10.313
head 2.75374 -9.07474 4.38363
lclavicle 8.07456e-14 -2.41196e-14 0
lhumerus -72.0954 -17.4471 104.426
lradius 104.198 0 0
lwrist 54.7759 0 0
lhand -17.554 47.566 0
lfingers 7.12502 0 0
lthumb 8.70373 77.4137 0
rclavicle 8.07456e-14 -2.41196e-14 0
rhumerus 46.8205 -3.75099 -55.7476
rradius 19.1935 0 0
rwrist 21.6766 0 0
rhand -17.5035 -35.1881 0
rfingers 7.12502 0 0
rthumb 8.74967 -64.9884 0
1641
root -15.0236 14.5561 19.4683 704.188 -71.7315 376.274
lfemur 10.7786 -12.3549 -13
ltibia 31.525 0 0
lfoot -21.1098 29.7329 0
ltoes -42.7887 0 0
rfemur -52.8114 -14.2868 7.94556
rtibia 66.2994 0 0
rfoot -10.5798 10.7567 0
rtoes 2.62189 0 0
lowerback 12.9045 4.09815 -7.09143
upperback -0.450077 4.32144 -0.236031
thorax -8.26295 2.37494 2.86424
lowerneck 1.62812 -13.3161 -12.7067
upperneck 2.79462 -18.2908 10.5143
head 2.70067 -9.17774 4.45146
lclavicle 7.68196e-14 -2.55828e-14 0
lhumerus -72.2699 -17.5352 104.562
lradius 104.232 0 0
lwrist 54.8672 0 0
lhand -18.3129 47.2256 0
lfingers 7.12502 0 0
lthumb 7.97395 77.1434 0
rclavicle 7.68196e-14 -2.55828e-14 0
rhumerus 46.7551 -3.78524 -55.5592
rradius 19.0498 0 0
rwrist 20.8916 0 0
rhand -17.3176 -35.3095 0
rfingers 7.12502 0 0
rthumb 8.92998 -65.1136 0
1642
root -14.9919 14.5459 19.4868 704.815 -71.7596 375.743
lfemur 9.98517 -12.5463 -12.8471
ltibia 32.9958 0 0
lfoot -21.0643 29.6981 0
ltoes -42.4218 0 0
rfemur -53.0597 -14.2985 8.11514
rtibia 66.5924 0 0
rfoot -10.6678 10.9217 0
rtoes 2.09741 0 0
lowerback 12.8905 4.10804 -6.90548
upperback -0.481758 4.36772 -0.215109
thorax -8.28767 2.39297 2.77081
lowerneck 1.7259 -13.4379 -12.759
upperneck 2.57234 -18.4591 10.6688
head 2.65757 -9.2625 4.50239
lclavicle 7.32928e-14 -2.7029e-14 0
lhumerus -72.5725 -17.513 104.731
lradius 104.284 0 0
lwrist 55.0021 0 0
lhand -18.9048 46.9674 0
lfingers 7.12502 0 0
lthumb 7.40471 76.94 0
rclavicle 7.32928e-14 -2.7029e-14 0
rhumerus 46.713 -3.90635 -55.4714
rradius 18.6412 0 0
rwrist 20.393 0 0
rhand -17.2664 -35.4403 0
rfingers 7.12502 0 0
rthumb 8.98085 -65.2614 0
1643
root -14.9603 14.5358 19.5052 705.35 -71.7543 375.295
lfemur 9.29084 -12.7008 -12.6783
ltibia 34.3306 0 0
lfoot -21.0105 29.6313 0
ltoes -42.0714 0 0
rfemur -53.3298 -14.387 8.32388
rtibia 67.0074 0 0
rfoot -10.7937 11.1317 0
rtoes 1.66638 0 0
lowerback 12.8715 4.13431 -6.7236
upperback -0.516077 4.43401 -0.21236
thorax -8.31517 2.42068 2.65554
lowerneck 1.79179 -13.54 -12.8
upperneck 2.39204 -18.5984 10.7838
head 2.62306 -9.33131 4.53908
lclavicle 7.01066e-14 -2.84361e-14 0
lhumerus -72.9774 -17.4007 104.927
lradius 104.35 0 0
lwrist 55.1718 0 0
lhand -19.3417 46.7812 0
lfingers 7.12502 0 0
lthumb 6.98449 76.7945 0
rclavicle 7.01066e-14 -2.84361e-14 0
rhumerus 46.69 -4.09779 -55.4654
rradius 18.019 0 0
rwrist 20.1308 0 0
rhand -17.3266 -35.5799 0
rfingers 7.12502 0 0
rthumb 8.92463 -65.4287 0
1644
root -14.9287 14.5257 19.5237 705.805 -71.7224 374.918
lfemur 8.67845 -12.824 -12.4983
ltibia 35.5497 0 0
lfoot -20.9509 29.5382 0
ltoes -41.7388 0 0
rfemur -53.615 -14.5346 8.5614
rtibia 67.5144 0 0
rfoot -10.9455 11.3747 0
rtoes 1.31164 0 0
lowerback 12.8493 4.17346 -6.54697
upperback -0.551799 4.5156 -0.224476
thorax -8.3445 2.45583 2.52373
lowerneck 1.83147 -13.6249 -12.8317
upperneck 2.24693 -18.7126 10.8665
head 2.59574 -9.3865 4.56423
lclavicle 6.72022e-14 -2.97822e-14 0
lhumerus -73.4586 -17.2181 105.141
lradius 104.426 0 0
lwrist 55.3677 0 0
lhand -19.6357 46.657 0
lfingers 7.12502 0 0
lthumb 6.70181 76.6979 0
rclavicle 6.72022e-14 -2.97822e-14 0
rhumerus 46.6821 -4.34302 -55.5223
rradius 17.2347 0 0
rwrist 20.055 0 0
rhand -17.4751 -35.7272 0
rfingers 7.12502 0 0
rthumb 8.78364 -65.6121 0
